<svg width="46" height="47" viewBox="0 0 46 47" fill="none" xmlns="http://www.w3.org/2000/svg">
<rect x="0.5" y="1.32153" width="45" height="45" rx="7.5" stroke="#272A33"/>
<path d="M15.2898 31.7097C14.9034 31.3226 14.9034 30.695 15.2898 30.3079L29.2819 16.2903C29.6683 15.9032 30.2948 15.9032 30.6812 16.2903C31.0675 16.6774 31.0675 17.305 30.6812 17.6921L16.689 31.7097C16.3026 32.0968 15.6762 32.0968 15.2898 31.7097Z" fill="#272A33"/>
<path d="M30.7102 31.7097C31.0966 31.3226 31.0966 30.695 30.7102 30.3079L16.7181 16.2903C16.3317 15.9032 15.7052 15.9032 15.3188 16.2903C14.9325 16.6774 14.9325 17.305 15.3188 17.6921L29.311 31.7097C29.6974 32.0968 30.3238 32.0968 30.7102 31.7097Z" fill="#272A33"/>
</svg>
